<?xml version="1.0" encoding="utf-8"?>
<!-- Generator: Adobe Illustrator 24.3.0, SVG Export Plug-In . SVG Version: 6.00 Build 0)  -->
<svg version="1.1" id="Capa_1" xmlns="http://www.w3.org/2000/svg" xmlns:xlink="http://www.w3.org/1999/xlink" x="0px" y="0px"
	 viewBox="0 0 512 512" style="enable-background:new 0 0 512 512;" xml:space="preserve">
<style type="text/css">
	.st0{display:none;}
	.st1{display:inline;fill:#FFFFFF;}
	.st2{display:inline;fill-rule:evenodd;clip-rule:evenodd;fill:#FFFFFF;}
	.st3{fill:#FFFFFF;}
</style>
<g class="st0">
	<path class="st1" d="M256.3-0.19c-141.38,0-256,114.61-256,256c0,141.38,114.62,256,256,256c141.39,0,256-114.62,256-256
		C512.3,114.42,397.69-0.19,256.3-0.19z M416.52,322.27c-0.79,17.15-3.51,28.87-7.5,39.12c-4.12,10.6-9.63,19.59-18.59,28.55
		c-8.96,8.96-17.95,14.47-28.55,18.59c-10.25,3.99-21.97,6.71-39.12,7.49c-17.2,0.79-22.68,0.97-66.46,0.97
		c-43.77,0-49.26-0.18-66.46-0.97c-17.15-0.78-28.87-3.5-39.12-7.49c-10.6-4.12-19.59-9.63-28.55-18.59
		c-8.96-8.96-14.47-17.95-18.59-28.55c-3.99-10.25-6.71-21.97-7.49-39.12c-0.79-17.2-0.97-22.69-0.97-66.46
		c0-43.78,0.18-49.27,0.97-66.46c0.78-17.15,3.5-28.87,7.49-39.12c4.12-10.6,9.63-19.59,18.59-28.55
		c8.96-8.96,17.95-14.47,28.55-18.59c10.25-3.99,21.97-6.71,39.12-7.5c17.2-0.78,22.69-0.97,66.46-0.97
		c43.78,0,49.26,0.19,66.46,0.97c17.15,0.79,28.87,3.51,39.12,7.5c10.6,4.12,19.59,9.63,28.55,18.59s14.47,17.95,18.59,28.55
		c3.99,10.25,6.71,21.97,7.5,39.12c0.78,17.19,0.97,22.68,0.97,66.46C417.49,299.58,417.3,305.07,416.52,322.27z"/>
	<path class="st1" d="M387.5,190.68c-0.71-15.72-3.34-24.25-5.55-29.93c-2.92-7.53-6.41-12.9-12.05-18.54
		c-5.64-5.64-11.01-9.13-18.54-12.05c-5.68-2.21-14.21-4.84-29.93-5.55c-16.99-0.78-22.09-0.94-65.13-0.94
		c-43.04,0-48.14,0.16-65.13,0.94c-15.72,0.71-24.25,3.34-29.93,5.55c-7.53,2.92-12.89,6.41-18.54,12.05
		c-5.64,5.64-9.13,11.01-12.05,18.54c-2.21,5.68-4.84,14.21-5.55,29.93c-0.78,16.99-0.94,22.09-0.94,65.13
		c0,43.04,0.16,48.14,0.94,65.13c0.71,15.72,3.34,24.25,5.55,29.93c2.92,7.53,6.41,12.9,12.05,18.53
		c5.65,5.65,11.01,9.14,18.54,12.06c5.68,2.21,14.21,4.84,29.93,5.55c16.99,0.78,22.09,0.94,65.13,0.94
		c43.04,0,48.14-0.16,65.13-0.94c15.72-0.71,24.25-3.34,29.93-5.55c7.53-2.92,12.9-6.41,18.54-12.06c5.64-5.64,9.13-11,12.05-18.53
		c2.21-5.68,4.84-14.21,5.55-29.93c0.78-16.99,0.94-22.09,0.94-65.13C388.44,212.77,388.28,207.67,387.5,190.68z M256.3,338.58
		c-45.71,0-82.77-37.06-82.77-82.77c0-45.71,37.06-82.77,82.77-82.77c45.71,0,82.77,37.06,82.77,82.77
		C339.07,301.52,302.01,338.58,256.3,338.58z M342.34,189.11c-10.68,0-19.34-8.66-19.34-19.34c0-10.68,8.66-19.34,19.34-19.34
		c10.68,0,19.34,8.66,19.34,19.34C361.68,180.45,353.02,189.11,342.34,189.11z"/>
	
		<ellipse transform="matrix(0.7071 -0.7071 0.7071 0.7071 -105.8164 256.1565)" class="st1" cx="256.3" cy="255.81" rx="53.73" ry="53.73"/>
</g>
<g class="st0">
	<path class="st2" d="M256.3-0.19c-141.38,0-256,114.61-256,256c0,141.38,114.62,256,256,256c141.39,0,256-114.62,256-256
		C512.3,114.42,397.69-0.19,256.3-0.19z M397.79,201.05c0.13,2.91,0.19,5.84,0.19,8.79c0,89.82-68.37,193.41-193.41,193.41
		c-38.39,0-74.11-11.26-104.2-30.54c5.32,0.63,10.73,0.94,16.22,0.94c31.85,0,61.16-10.86,84.43-29.09
		c-29.76-0.56-54.85-20.21-63.51-47.22c4.14,0.79,8.4,1.23,12.78,1.23c6.2,0,12.21-0.84,17.92-2.39
		c-31.1-6.24-54.54-33.72-54.54-66.65c0-0.29,0-0.58,0.02-0.86c9.16,5.09,19.64,8.16,30.79,8.5c-18.25-12.18-30.25-33-30.25-56.58
		c0-12.45,3.36-24.12,9.2-34.17c33.53,41.13,83.62,68.18,140.12,71.02c-1.17-4.97-1.76-10.16-1.76-15.5
		c0-37.52,30.44-67.97,67.98-67.97c19.55,0,37.22,8.27,49.62,21.48c15.49-3.05,30.03-8.71,43.16-16.5
		c-5.08,15.87-15.85,29.19-29.89,37.6c13.75-1.64,26.86-5.29,39.04-10.7C422.6,179.48,411.06,191.45,397.79,201.05z"/>
</g>
<g>
	<path class="st3" d="M512.3,255.81c0-141.38-114.62-256-256-256s-256,114.62-256,256c0,127.78,93.62,233.69,216,252.89V329.81h-65
		v-74h65v-56.4c0-64.16,38.22-99.6,96.69-99.6c28.01,0,57.31,5,57.31,5v63h-32.28c-31.8,0-41.72,19.73-41.72,39.98v48.02h71
		l-11.35,74H296.3V508.7C418.68,489.49,512.3,383.59,512.3,255.81z"/>
</g>
</svg>
